<?xml version="1.0" encoding="UTF-8"?>
<svg width="50px" height="50px" viewBox="0 0 50 50" version="1.1" xmlns="http://www.w3.org/2000/svg" xmlns:xlink="http://www.w3.org/1999/xlink">
    <!-- Generator: Sketch 49.3 (51167) - http://www.bohemiancoding.com/sketch -->
    <title>telegram</title>
    <desc>Created with Sketch.</desc>
    <defs></defs>
    <g id="Page-1" stroke="none" stroke-width="1" fill="none" fill-rule="evenodd">
        <g id="telegram" fill="#FFFFFF" fill-rule="nonzero">
            <path d="M25,50 C11.1928813,50 0,38.8071187 0,25 C0,11.1928813 11.1928813,0 25,0 C38.8071187,0 50,11.1928813 50,25 C50,38.8071187 38.8071187,50 25,50 Z M37.7948809,12.7293851 L8.09617762,24.3026537 C7.13423171,24.6775504 7.19250784,26.057954 8.18271474,26.3503091 L15.7294732,28.578835 L18.5459253,37.5157422 C18.840132,38.4492322 20.0230984,38.732232 20.7078916,38.0330159 L24.609761,34.0489948 L32.2655679,39.6685481 C33.2024687,40.3562649 34.5367776,39.8453255 34.7746573,38.7077716 L39.8451676,14.4656824 C40.0934745,13.2782332 38.9252234,12.2889034 37.7948809,12.7293851 Z M34.0714457,18.1093047 L20.2765703,30.3081158 C20.139066,30.4297355 20.0515543,30.5980346 20.0310895,30.7804642 L19.4999776,35.501805 C19.4826312,35.6557788 19.2671654,35.6761462 19.2211682,35.5282145 L17.0360084,28.4870355 C16.9359255,28.1646652 17.0664133,27.8153983 17.3532137,27.6375489 L33.6435352,17.5341446 C34.0181396,17.3016248 34.4017095,17.8173393 34.0714457,18.1093047 Z" id="Shape"></path>
        </g>
    </g>
</svg>